# xmcd CD database file generated by OrangeCD 5.2
#
# Track frame offsets:
#	182
#	13257
#	30535
#	43422
#	55385
#	64552
#	83947
#	99355
#	119515
#	137672
#	158817
#	174110
#	186710
#	202570
#	218280
#	232422
#
# Disc length: 3325 seconds
#
# Revision: 0
# Processed by: cddbd v1.5.1PL0 Copyright (c) Steve Scherf et al.
# Submitted via: OrangeCD 5.2
#
DISCID=db0cfb10
DTITLE=Donnie Elbert - R&B Maverick Disc 2
DYEAR=1997
DGENRE=R&B Male 
TTITLE0=This Feeling Of Losing You
TTITLE1=Love Is Strange
TTITLE2=You're Gonna Cry When I'm Gone
TTITLE3=(In Between The Heartaches) Another Tear Will Take It's Place
TTITLE4=Come See Me
TTITLE5=Free
TTITLE6=A Love Of Your Own
TTITLE7=You Don't Have To Be A Star
TTITLE8=You Should Be Dancing 
TTITLE9=What A Difference A Day Made
TTITLE10=Back In My Arms Again
TTITLE11=Will You Still Love Me Tomorrow
TTITLE12=What Do You Do
TTITLE13=Reaching For A Dream  (Lonnie Youngblood)
TTITLE14=Cry Cry Cry   (Shirley and Company)
TTITLE15=Mr. Peanut Goes To Washington   (Little Joe Cook)
EXTD=
EXTT0=
EXTT1=
EXTT2=
EXTT3=
EXTT4=
EXTT5=
EXTT6=
EXTT7=
EXTT8=
EXTT9=
EXTT10=
EXTT11=
EXTT12=
EXTT13=
EXTT14=
EXTT15=
PLAYORDER=
